<?xml version="1.0" encoding="UTF-8"?>
<svg version="1.1" xmlns="http://www.w3.org/2000/svg" width="500" height="500">
<path d="M0 0 C2.0668332 0.00119685 4.13366696 0.0016439 6.20050049 0.00138855 C10.49649547 0.00293823 14.79240533 0.0111114 19.08837891 0.0246582 C24.55350891 0.04168861 30.01854635 0.04547026 35.4836998 0.04471302 C39.73914447 0.04498676 43.99456954 0.05049979 48.25000763 0.05771446 C50.2639374 0.06086149 52.27786936 0.06285908 54.29180145 0.06360817 C64.51086939 0.07157937 74.65890632 0.19935454 84.84918213 1.00541687 C91.34138765 1.48580829 97.7377859 1.32164333 104.22758484 0.87324524 C117.30132045 0.00891861 130.38998038 0.04303156 143.48657227 0.04516602 C146.90147851 0.04526804 150.31617878 0.03153183 153.73103619 0.01439381 C157.05897408 0.00044759 160.38687719 0.00118209 163.71484375 0 C164.91525803 -0.00718552 166.1156723 -0.01437103 167.35246277 -0.02177429 C180.33862221 0.01260817 192.28151585 0.9558655 203.890625 7.23046875 C204.550625 7.56046875 205.210625 7.89046875 205.890625 8.23046875 C205.890625 8.89046875 205.890625 9.55046875 205.890625 10.23046875 C206.550625 10.23046875 207.210625 10.23046875 207.890625 10.23046875 C215.72434118 20.10776307 216.17077637 37.29485433 216.5078125 49.33984375 C216.54534637 50.53148132 216.58288025 51.7231189 216.62155151 52.9508667 C217.09331359 69.8540072 217.04484612 86.76593817 217.01959991 103.67417526 C217.01557233 106.51765695 217.01309119 109.36113668 217.01092529 112.20462036 C216.91988105 216.24472461 216.91988105 216.24472461 213.3515625 251.83984375 C212.57388574 259.88062806 212.57469366 267.97620367 212.4609375 276.04882812 C212.28417308 283.27775622 211.50957289 289.72231293 209.55908203 296.68676758 C208.77140628 299.68413559 208.55894778 302.51222201 208.515625 305.60546875 C208.23583001 309.50733706 207.92290355 311.17320036 205.953125 314.66796875 C201.87337021 318.08164112 197.7461569 320.11099054 192.890625 322.23046875 C191.85421875 322.73835938 190.8178125 323.24625 189.75 323.76953125 C182.14703205 327.23007496 175.07560753 328.89393595 166.82421875 329.8671875 C165.77619583 329.99358109 164.72817291 330.11997467 163.64839172 330.25019836 C152.63083418 331.49681629 141.65601361 331.79316391 130.578125 331.91796875 C128.46881845 331.95167458 126.3595248 331.98619575 124.25024414 332.02148438 C107.96659244 332.27428085 91.68037563 332.30903592 75.39526367 332.1940918 C74.54212585 332.18975632 73.68898804 332.18542084 72.80999756 332.18095398 C71.24059097 332.17265132 69.67119723 332.16028244 68.10186768 332.14265442 C63.98734044 332.12367271 60.07508456 332.43755254 55.98912048 333.00115967 C51.98342534 333.43887435 47.96662305 333.37253637 43.94140625 333.36328125 C43.00693161 333.36423798 42.07245697 333.3651947 41.10966492 333.36618042 C39.14057345 333.36685768 37.17147969 333.36503523 35.20239258 333.36083984 C32.22927677 333.35551558 29.25631411 333.36078471 26.28320312 333.3671875 C16.43650313 333.3702821 6.69388396 333.25089096 -3.109375 332.23046875 C-3.08875 333.34421875 -3.068125 334.45796875 -3.046875 335.60546875 C-3.109375 339.23046875 -3.109375 339.23046875 -4.109375 341.23046875 C-4.769375 341.23046875 -5.429375 341.23046875 -6.109375 341.23046875 C-7.429375 338.26046875 -8.749375 335.29046875 -10.109375 332.23046875 C-11.099375 332.23046875 -12.089375 332.23046875 -13.109375 332.23046875 C-14.099375 335.53046875 -15.089375 338.83046875 -16.109375 342.23046875 C-17.099375 342.23046875 -18.089375 342.23046875 -19.109375 342.23046875 C-19.769375 339.26046875 -20.429375 336.29046875 -21.109375 333.23046875 C-22.099375 333.56046875 -23.089375 333.89046875 -24.109375 334.23046875 C-24.604375 340.17046875 -24.604375 340.17046875 -25.109375 346.23046875 C-26.099375 346.23046875 -27.089375 346.23046875 -28.109375 346.23046875 C-28.15835938 345.57820313 -28.20734375 344.9259375 -28.2578125 344.25390625 C-28.67839942 339.33739022 -29.11486724 334.8061042 -31.109375 330.23046875 C-31.769375 329.90046875 -32.429375 329.57046875 -33.109375 329.23046875 C-33.109375 330.22046875 -33.109375 331.21046875 -33.109375 332.23046875 C-35.13082494 334.85835367 -36.87446724 335.67272603 -40.109375 336.23046875 C-40.439375 337.88046875 -40.769375 339.53046875 -41.109375 341.23046875 C-41.769375 341.23046875 -42.429375 341.23046875 -43.109375 341.23046875 C-43.41230469 340.39902344 -43.71523437 339.56757813 -44.02734375 338.7109375 C-44.65576172 337.08091797 -44.65576172 337.08091797 -45.296875 335.41796875 C-45.70292969 334.33902344 -46.10898438 333.26007813 -46.52734375 332.1484375 C-48.30718395 328.86562114 -49.78723296 327.82174687 -53.109375 326.23046875 C-53.109375 326.89046875 -53.109375 327.55046875 -53.109375 328.23046875 C-64.63543621 329.35422175 -74.24783328 330.05768994 -84.109375 323.23046875 C-85.88804888 321.30553787 -87.4759735 319.28388778 -89.109375 317.23046875 C-89.769375 317.23046875 -90.429375 317.23046875 -91.109375 317.23046875 C-101.42127176 304.47628065 -100.95762985 285.35860999 -101.8828125 269.79541016 C-102.10598606 266.28379347 -102.38205789 262.78012667 -102.671875 259.2734375 C-105.35127833 225.14714484 -104.39957614 190.81206281 -103.47106934 156.62701416 C-103.04974991 140.56482255 -103.20494804 124.54327128 -103.546875 108.48046875 C-103.59524988 106.15446036 -103.64358996 103.82845125 -103.69189453 101.50244141 C-103.763604 98.07232328 -103.83541167 94.64220733 -103.90750122 91.21209717 C-104.12350206 80.81638597 -104.32238236 70.42136862 -104.39749146 60.02355957 C-104.41353133 58.2273349 -104.43682696 56.43115784 -104.46798706 54.63513184 C-104.5096267 52.17836372 -104.52568045 49.7226988 -104.53515625 47.265625 C-104.55262909 46.56299026 -104.57010193 45.86035553 -104.58810425 45.13642883 C-104.55897963 38.43568591 -102.0955399 33.42034287 -97.671875 28.54296875 C-96.82625 27.77984375 -95.980625 27.01671875 -95.109375 26.23046875 C-94.2225 25.30234375 -93.335625 24.37421875 -92.421875 23.41796875 C-90.109375 21.23046875 -90.109375 21.23046875 -88.109375 21.23046875 C-88.109375 20.57046875 -88.109375 19.91046875 -88.109375 19.23046875 C-87.449375 19.23046875 -86.789375 19.23046875 -86.109375 19.23046875 C-86.109375 18.57046875 -86.109375 17.91046875 -86.109375 17.23046875 C-77.83253717 8.21321092 -63.82463897 6.17768498 -52.359375 4.04296875 C-51.52841309 3.88812012 -50.69745117 3.73327148 -49.84130859 3.57373047 C-33.255027 0.70152531 -16.80311038 -0.065485 0 0 Z " fill="#F90303" transform="translate(186.109375,58.76953125)"/>
<path d="M0 0 C0.68847015 -0.00191345 1.37694031 -0.0038269 2.08627319 -0.00579834 C3.54726526 -0.0071608 5.0082694 -0.00346008 6.46923828 0.00488281 C8.68160086 0.01548442 10.89313316 0.00504129 13.10546875 -0.0078125 C29.64905494 -0.02563004 29.64905494 -0.02563004 36.0859375 4.265625 C37.37823404 6.8056305 38.52974996 9.30116845 39.6328125 11.921875 C39.96710266 12.69760864 40.30139282 13.47334229 40.64581299 14.27258301 C41.35598174 15.92519669 42.06181619 17.57967855 42.76367188 19.23583984 C43.8099055 21.70420796 44.86840057 24.16697895 45.9296875 26.62890625 C49.3529474 34.60807803 52.63660712 42.62022364 55.7265625 50.734375 C58.01860484 56.74302402 60.58848464 62.45387599 63.55371094 68.16748047 C66.42973972 73.98277767 68.81021508 80.01565702 71.26556396 86.01779175 C76.77151779 99.47341298 82.44663417 112.83051486 88.49267578 126.05297852 C88.95399902 127.07061279 89.41532227 128.08824707 89.890625 129.13671875 C90.29265137 130.01255615 90.69467773 130.88839355 91.10888672 131.79077148 C92.09100939 134.27847202 92.64758045 136.63223778 93.0859375 139.265625 C96.23558219 137.69080265 96.62756726 135.01086946 97.94921875 131.80859375 C98.22307907 131.15039139 98.49693939 130.49218903 98.77909851 129.81404114 C99.65854135 127.69629381 100.5286142 125.57483902 101.3984375 123.453125 C101.97268892 122.06549914 102.5475522 120.67812633 103.12304688 119.29101562 C104.25565332 116.55849267 105.38459055 113.82450166 106.51025391 111.08911133 C107.87380739 107.77683962 109.24870084 104.46943646 110.62890625 101.1640625 C112.43891353 96.826432 114.2345075 92.48308523 116.0234375 88.13671875 C116.78740755 86.2826222 117.55137809 84.42852584 118.31542969 82.57446289 C118.82973194 81.3253733 119.3434024 80.07602339 119.85644531 78.82641602 C122.74756679 71.78688421 125.72018532 64.80745541 128.90234375 57.89477539 C130.92409777 53.40379581 132.74749282 48.83395468 134.5859375 44.265625 C137.21832766 37.77816162 139.86939402 31.32222474 142.83984375 24.98046875 C143.86136509 22.75489717 144.84011026 20.52157885 145.80078125 18.26953125 C146.10612793 17.55716309 146.41147461 16.84479492 146.72607422 16.11083984 C147.32230595 14.71605528 147.91409269 13.3193585 148.50048828 11.92041016 C148.77747559 11.27507324 149.05446289 10.62973633 149.33984375 9.96484375 C149.58033447 9.39596436 149.8208252 8.82708496 150.06860352 8.2409668 C150.40432373 7.589104 150.74004395 6.93724121 151.0859375 6.265625 C151.59938721 5.21286377 152.11283691 4.16010254 152.6418457 3.07543945 C155.23586901 0.09325843 155.44498958 -0.14704123 159.08837891 -0.44726562 C160.70481427 -0.45979988 162.32173763 -0.43891962 163.9375 -0.390625 C164.79274261 -0.38687866 165.64798523 -0.38313232 166.52914429 -0.37927246 C168.33306524 -0.36584924 170.13692884 -0.33805376 171.94042969 -0.296875 C174.70822933 -0.23443609 177.47375273 -0.21492231 180.2421875 -0.203125 C181.99481957 -0.18478897 183.74742841 -0.16403868 185.5 -0.140625 C186.3302066 -0.13212524 187.16041321 -0.12362549 188.01577759 -0.11486816 C193.85150006 0.03118756 193.85150006 0.03118756 196.0859375 2.265625 C196.28391574 5.19435382 196.35509597 8.02864944 196.33990479 10.95861816 C196.34458476 12.32501301 196.34458476 12.32501301 196.34935927 13.71901178 C196.3573753 16.78995271 196.35100164 19.86069801 196.34472656 22.93164062 C196.34743483 25.12570817 196.35099482 27.31977482 196.35534668 29.51383972 C196.36449255 35.48682811 196.36091739 41.4597477 196.35458851 47.43273735 C196.34953986 53.67118394 196.35421679 59.90962448 196.35736084 66.14807129 C196.36123743 77.29820236 196.3550056 88.44830808 196.34484217 99.59843308 C196.33590624 109.71521445 196.33745816 119.83194993 196.34667969 129.94873047 C196.35737443 141.68730599 196.36137117 153.42585914 196.35545516 165.16443968 C196.35233028 171.38183921 196.35194029 177.59920709 196.35852814 183.81660461 C196.36428732 189.6605934 196.36033096 195.50449516 196.34873962 201.3484745 C196.34608537 203.49878609 196.34687107 205.64910495 196.35126495 207.79941368 C196.35669177 210.72392007 196.34992131 213.6481437 196.33990479 216.57263184 C196.34659695 217.86336916 196.34659695 217.86336916 196.35342431 219.18018198 C196.31423753 225.03732497 196.31423753 225.03732497 194.0859375 227.265625 C189.68592413 227.66510971 185.27135588 227.59464061 180.85522461 227.58129883 C178.66013829 227.57814183 176.46640365 227.60158261 174.27148438 227.62695312 C172.87760587 227.62922643 171.48372373 227.62992947 170.08984375 227.62890625 C168.81955322 227.63188721 167.5492627 227.63486816 166.24047852 227.63793945 C163.0859375 227.265625 163.0859375 227.265625 161.41132641 226.10420513 C159.54051208 223.5090106 159.71680316 221.65972044 159.72517395 218.47602844 C159.71898796 216.66500641 159.71898796 216.66500641 159.712677 214.81739807 C159.72329437 213.47762839 159.73419879 212.13786096 159.74536133 210.7980957 C159.74620745 209.3888043 159.74573275 207.97951158 159.74403381 206.57022095 C159.74317184 202.7418928 159.76083011 198.91384571 159.78175569 195.08558297 C159.80048889 191.08573084 159.80227027 187.08587251 159.80583191 183.08598328 C159.81516227 175.51054553 159.8397894 167.93523741 159.86988038 160.35985678 C159.90339361 151.73602762 159.91990264 143.11219232 159.93496668 134.48831427 C159.96633813 116.74734431 160.01911783 99.00649507 160.0859375 81.265625 C156.83227107 84.28782561 155.22141981 87.77663821 153.3984375 91.765625 C153.05176025 92.51247559 152.70508301 93.25932617 152.34790039 94.02880859 C149.42164434 100.39356404 146.70485301 106.8407596 144.01904297 113.30981445 C141.70308473 118.86800065 139.23982081 124.3340165 136.65991211 129.77392578 C134.54906885 134.23554902 132.54688021 138.73626177 130.5859375 143.265625 C128.13321422 148.92753163 125.57825557 154.52817781 122.93066406 160.10253906 C121.04687332 164.10637843 119.26610229 168.14577705 117.52734375 172.21484375 C117.08237549 173.25439209 116.63740723 174.29394043 116.17895508 175.36499023 C115.29613769 177.43602431 114.41948143 179.50969751 113.54956055 181.58618164 C113.14390869 182.5374292 112.73825684 183.48867676 112.3203125 184.46875 C111.96163086 185.32114258 111.60294922 186.17353516 111.23339844 187.05175781 C110.02258879 189.38784758 109.24754966 190.75862594 107.0859375 192.265625 C104.2668457 192.60620117 104.2668457 192.60620117 100.88671875 192.55859375 C99.67822266 192.54892578 98.46972656 192.53925781 97.22460938 192.52929688 C95.96197266 192.50416016 94.69933594 192.47902344 93.3984375 192.453125 C92.12419922 192.43958984 90.84996094 192.42605469 89.53710938 192.41210938 C86.38629693 192.37670699 83.23632705 192.3273229 80.0859375 192.265625 C73.6510299 180.86430488 68.48426637 169.01184408 63.42089844 156.95214844 C61.26154967 151.84911346 58.92178269 146.89258822 56.41430664 141.95239258 C53.81369292 136.6923753 51.46926654 131.31413684 49.0859375 125.953125 C48.06523839 123.6653047 47.04439647 121.3775481 46.0234375 119.08984375 C45.76648102 118.51322589 45.50952454 117.93660803 45.24478149 117.3425169 C41.95433201 109.96136828 38.64629458 102.58810066 35.33984375 95.21411133 C34.7314789 93.85719364 34.1231211 92.50027278 33.51477051 91.14334869 C32.03857408 87.8507377 30.56228241 84.55816942 29.0859375 81.265625 C29.08354915 81.99984334 29.08116079 82.73406168 29.07870007 83.49052906 C29.01960661 101.34206261 28.94409302 119.19345722 28.85022259 137.04484272 C28.80522528 145.67758782 28.76581979 154.31029131 28.73950195 162.94311523 C28.71655364 170.46603757 28.68319133 177.98882864 28.63723594 185.51164693 C28.61326077 189.49625718 28.59456024 193.48073708 28.58832359 197.46541786 C28.58229201 201.21406277 28.56236277 204.96237397 28.53166199 208.71089554 C28.52285067 210.08834838 28.51916556 211.46584477 28.52092934 212.84332466 C28.52257476 214.72093078 28.50416256 216.59852284 28.48466492 218.47602844 C28.47775147 220.05367713 28.47775147 220.05367713 28.47069836 221.66319752 C28.0859375 224.265625 28.0859375 224.265625 26.75718403 226.10321331 C24.0212921 228.00612393 21.39494088 227.65528728 18.1171875 227.6640625 C17.44046997 227.66693268 16.76375244 227.66980286 16.06652832 227.67276001 C14.63760541 227.67479897 13.20865448 227.66928069 11.77978516 227.65673828 C9.59344025 227.64068011 7.40894371 227.65659034 5.22265625 227.67578125 C3.83332926 227.67379879 2.44400341 227.66995504 1.0546875 227.6640625 C-0.20923828 227.66067871 -1.47316406 227.65729492 -2.77539062 227.65380859 C-5.9140625 227.265625 -5.9140625 227.265625 -7.58680886 225.98077685 C-9.92317433 222.96159391 -9.31995923 219.15720469 -9.2882843 215.49034119 C-9.29225871 214.58264042 -9.29623311 213.67493965 -9.30032796 212.7397328 C-9.30998416 209.6856248 -9.29811276 206.63197617 -9.28637695 203.57788086 C-9.2888038 201.39351732 -9.29252208 199.20915489 -9.29743958 197.02479553 C-9.30686625 191.08282062 -9.29740847 185.14100992 -9.28410745 179.1990478 C-9.27281623 172.99130516 -9.27689861 166.78357088 -9.27885437 160.57582092 C-9.27973802 150.15070013 -9.26871211 139.72564018 -9.25024414 129.30053711 C-9.23123491 118.56711872 -9.22415766 107.83377582 -9.22973633 97.1003418 C-9.23643458 84.17453497 -9.23315614 71.24877214 -9.22063255 58.32296944 C-9.21597743 53.38160139 -9.21511664 48.44025385 -9.2172184 43.4988842 C-9.21909625 37.68524315 -9.21103629 31.87169951 -9.195158 26.05808067 C-9.1909004 23.91905877 -9.19007444 21.780027 -9.19284821 19.64100266 C-9.19604941 16.73186843 -9.18704057 13.82302906 -9.17475891 10.91392517 C-9.17853823 10.05800669 -9.18231756 9.20208821 -9.18621141 8.32023281 C-9.12812298 0.5968211 -7.42472173 0.0130931 0 0 Z " fill="#FDFBF9" transform="translate(150.9140625,107.734375)"/>
<path d="M0 0 C0.66 0.33 1.32 0.66 2 1 C0.75 3.9375 0.75 3.9375 -1 7 C-3.125 7.6875 -3.125 7.6875 -5 8 C-5.33 8.99 -5.66 9.98 -6 11 C-8.5625 12.1875 -8.5625 12.1875 -11 13 C-11 13.66 -11 14.32 -11 15 C-11.99 15.495 -11.99 15.495 -13 16 C-13.1546875 17.175625 -13.1546875 17.175625 -13.3125 18.375 C-14 21 -14 21 -16.4375 22.8125 C-19 24 -19 24 -21 24 C-20.89291299 51.62412319 -20.78017936 79.24821829 -20.66066074 106.87229061 C-20.60530313 119.69764721 -20.55181703 132.52300659 -20.50268555 145.34838867 C-20.45987474 156.52258499 -20.41360471 167.69676062 -20.36312145 178.87092501 C-20.33649543 184.79152154 -20.31164183 190.7121139 -20.29092598 196.6327343 C-20.27139741 202.19844317 -20.24726519 207.76411256 -20.21950912 213.3297863 C-20.21011859 215.37891933 -20.20245058 217.42806104 -20.19658089 219.47720718 C-20.18835358 222.26198379 -20.17408673 225.04666369 -20.15821838 227.83140564 C-20.15675122 229.06435794 -20.15675122 229.06435794 -20.15525442 230.32221836 C-20.47058875 233.96067748 -20.47058875 233.96067748 -19 237 C-18.8525031 239.43445913 -18.76511465 241.84428567 -18.71875 244.28125 C-18.70034058 245.00993286 -18.68193115 245.73861572 -18.66296387 246.48937988 C-18.58403496 249.61955628 -18.5164625 252.74995639 -18.44775391 255.88037109 C-18.39612846 258.1599425 -18.33883739 260.43932272 -18.28125 262.71875 C-18.26088684 263.78905457 -18.26088684 263.78905457 -18.2401123 264.88098145 C-18.44072762 268.22699999 -18.44072762 268.22699999 -17 271 C-16.79578652 274.27876092 -16.6539761 277.55018796 -16.5703125 280.83398438 C-16.35846612 285.61376832 -15.3687626 288.75069304 -13 293 C-12.17102647 295.65094209 -11.60863308 298.28456012 -11 301 C-9.68 301.33 -8.36 301.66 -7 302 C-7 302.66 -7 303.32 -7 304 C-6.34 304 -5.68 304 -5 304 C-5 304.66 -5 305.32 -5 306 C-4.34 306 -3.68 306 -3 306 C0 309.46153846 0 309.46153846 0 312 C1.65 312 3.3 312 5 312 C5 312.66 5 313.32 5 314 C5.73114014 313.95399658 6.46228027 313.90799316 7.21557617 313.8605957 C10.53878583 313.66101857 13.86285802 313.48651707 17.1875 313.3125 C18.33798828 313.23966797 19.48847656 313.16683594 20.67382812 313.09179688 C21.78564453 313.03701172 22.89746094 312.98222656 24.04296875 312.92578125 C25.57473755 312.83937378 25.57473755 312.83937378 27.13745117 312.7512207 C30.50623264 313.04399583 32.32532418 313.96307247 35 316 C35 316.66 35 317.32 35 318 C35.78375 317.814375 36.5675 317.62875 37.375 317.4375 C40 317 40 317 42 318 C42 318.66 42 319.32 42 320 C42.66 320 43.32 320 44 320 C44 319.34 44 318.68 44 318 C44.66 318 45.32 318 46 318 C46 316.68 46 315.36 46 314 C50.67692308 315.47692308 50.67692308 315.47692308 52.3125 318.125 C52.539375 318.74375 52.76625 319.3625 53 320 C53.66 320 54.32 320 55 320 C55.33 319.34 55.66 318.68 56 318 C58.32156597 317.59270772 60.6568787 317.25561323 63 317 C63 317.66 63 318.32 63 319 C63.75730754 318.85719416 64.51461508 318.71438831 65.29487133 318.56725502 C74.12515732 317.03927354 82.67155527 316.75738396 91.61254883 316.86474609 C93.13168253 316.87520011 94.65082282 316.88473005 96.16996765 316.89341736 C100.25182629 316.91933038 104.3334717 316.95800001 108.41520143 316.99914122 C112.6965601 317.04006493 116.97800031 317.06900582 121.25944519 317.09927368 C129.34810211 317.158249 137.43663064 317.22784045 145.52516717 317.30134451 C154.74167593 317.38457467 163.95826551 317.45582014 173.17488062 317.52611041 C192.11670662 317.67083558 211.05838081 317.83044392 230 318 C230 317.34 230 316.68 230 316 C241.88 315.505 241.88 315.505 254 315 C254 314.34 254 313.68 254 313 C263.41002278 310.70387244 263.41002278 310.70387244 268 311 C261.24229712 315.50513525 254.97245425 316.72569711 247.01953125 317.64453125 C245.96530472 317.77036087 244.91107819 317.89619049 243.8249054 318.02583313 C232.78507262 319.26205812 221.78652305 319.56245706 210.6875 319.6875 C208.57819345 319.72120583 206.4688998 319.755727 204.35961914 319.79101562 C188.07596744 320.0438121 171.78975063 320.07856717 155.50463867 319.96362305 C154.65150085 319.95928757 153.79836304 319.95495209 152.91937256 319.95048523 C151.34996597 319.94218257 149.78057223 319.92981369 148.21124268 319.91218567 C144.09671544 319.89320396 140.18445956 320.20708379 136.09849548 320.77069092 C132.09280034 321.2084056 128.07599805 321.14206762 124.05078125 321.1328125 C123.11630661 321.13376923 122.18183197 321.13472595 121.21903992 321.13571167 C119.24994845 321.13638893 117.28085469 321.13456648 115.31176758 321.13037109 C112.33865177 321.12504683 109.36568911 321.13031596 106.39257812 321.13671875 C96.54587813 321.13981335 86.80325896 321.02042221 77 320 C77.020625 321.11375 77.04125 322.2275 77.0625 323.375 C77 327 77 327 76 329 C75.34 329 74.68 329 74 329 C72.68 326.03 71.36 323.06 70 320 C69.01 320 68.02 320 67 320 C66.01 323.3 65.02 326.6 64 330 C63.01 330 62.02 330 61 330 C60.34 327.03 59.68 324.06 59 321 C58.01 321.33 57.02 321.66 56 322 C55.505 327.94 55.505 327.94 55 334 C54.01 334 53.02 334 52 334 C51.95101562 333.34773438 51.90203125 332.69546875 51.8515625 332.0234375 C51.43097558 327.10692147 50.99450776 322.57563545 49 318 C48.34 317.67 47.68 317.34 47 317 C47 317.99 47 318.98 47 320 C44.97855006 322.62788492 43.23490776 323.44225728 40 324 C39.67 325.65 39.34 327.3 39 329 C38.34 329 37.68 329 37 329 C36.69707031 328.16855469 36.39414063 327.33710938 36.08203125 326.48046875 C35.45361328 324.85044922 35.45361328 324.85044922 34.8125 323.1875 C34.40644531 322.10855469 34.00039062 321.02960938 33.58203125 319.91796875 C31.80219105 316.63515239 30.32214204 315.59127812 27 314 C27 314.66 27 315.32 27 316 C15.47393879 317.123753 5.86154172 317.82722119 -4 311 C-5.77867388 309.07506912 -7.3665985 307.05341903 -9 305 C-9.66 305 -10.32 305 -11 305 C-21.31189676 292.2458119 -20.84825485 273.12814124 -21.7734375 257.56494141 C-21.99661106 254.05332472 -22.27268289 250.54965792 -22.5625 247.04296875 C-25.24190333 212.91667609 -24.29020114 178.58159406 -23.36169434 144.39654541 C-22.94037491 128.3343538 -23.09557304 112.31280253 -23.4375 96.25 C-23.48587488 93.92399161 -23.53421496 91.5979825 -23.58251953 89.27197266 C-23.654229 85.84185453 -23.72603667 82.41173858 -23.79812622 78.98162842 C-24.01412706 68.58591722 -24.21300736 58.19089987 -24.28811646 47.79309082 C-24.30415633 45.99686615 -24.32745196 44.20068909 -24.35861206 42.40466309 C-24.4002517 39.94789497 -24.41630545 37.49223005 -24.42578125 35.03515625 C-24.44325409 34.33252151 -24.46072693 33.62988678 -24.47872925 32.90596008 C-24.44960463 26.20521716 -21.9861649 21.18987412 -17.5625 16.3125 C-16.716875 15.549375 -15.87125 14.78625 -15 14 C-14.113125 13.071875 -13.22625 12.14375 -12.3125 11.1875 C-10 9 -10 9 -8 9 C-8 8.34 -8 7.68 -8 7 C-7.34 7 -6.68 7 -6 7 C-6 6.34 -6 5.68 -6 5 C-4.04072937 3.2856382 -2.04119788 1.61594832 0 0 Z " fill="#B20C0C" transform="translate(106,71)"/>
<path d="M0 0 C1.34362885 0.00031689 2.68728332 0.01162897 4.03076172 0.03173828 C4.73820526 0.03456818 5.4456488 0.03739807 6.17453003 0.04031372 C8.43667432 0.05151941 10.69842437 0.07662399 12.96044922 0.10205078 C14.49299559 0.11208011 16.02554816 0.12120604 17.55810547 0.12939453 C21.31737223 0.15145992 25.07634386 0.18599183 28.83544922 0.22705078 C28.83544922 0.55705078 28.83544922 0.88705078 28.83544922 1.22705078 C27.4346814 1.26463501 27.4346814 1.26463501 26.00561523 1.30297852 C22.55219733 1.39792006 19.09895962 1.49716336 15.64575195 1.59936523 C14.14905653 1.64276891 12.65230983 1.68443991 11.15551758 1.72436523 C9.00830609 1.78193694 6.86135401 1.84566794 4.71435547 1.91064453 C2.77411499 1.9656311 2.77411499 1.9656311 0.79467773 2.02172852 C-2.05010086 1.89377858 -2.05010086 1.89377858 -3.16455078 3.22705078 C-3.26247678 6.0717591 -3.29447571 8.89218982 -3.2848053 11.73731995 C-3.28565972 12.64063944 -3.28651415 13.54395894 -3.28739446 14.47465175 C-3.28905204 17.52568269 -3.28352338 20.57665961 -3.27807617 23.62768555 C-3.27779433 25.80514525 -3.27795197 27.98260505 -3.27851868 30.1600647 C-3.27880678 36.09164275 -3.27290794 42.02320077 -3.26594472 47.95477414 C-3.25971336 54.14611285 -3.25910756 60.33745197 -3.25791931 66.52879333 C-3.2549826 77.59418925 -3.24775247 88.65957685 -3.23827659 99.72496896 C-3.22633229 113.74691462 -3.22015003 127.76885913 -3.21487439 141.7908088 C-3.20440853 169.26956144 -3.18660752 196.7483052 -3.16455078 224.22705078 C12.67544922 224.72205078 12.67544922 224.72205078 28.83544922 225.22705078 C29.16544922 177.70705078 29.49544922 130.18705078 29.83544922 81.22705078 C30.49544922 80.89705078 31.15544922 80.56705078 31.83544922 80.22705078 C31.90547808 98.95048143 31.95840731 117.67388556 31.99088573 136.39741993 C32.00636573 145.09075608 32.0274768 153.78401094 32.06176758 162.47729492 C32.09163536 170.05287707 32.11101598 177.62840036 32.1177147 185.20403975 C32.12163143 189.21664984 32.13085959 193.22909152 32.15263939 197.24164772 C32.17296326 201.016468 32.17929141 204.79105008 32.17477226 208.56591988 C32.17559931 209.95308475 32.1815895 211.34025738 32.19306564 212.72737503 C32.20794371 214.61802189 32.2026262 216.50879583 32.19621277 218.39949036 C32.19897815 219.4586305 32.20174353 220.51777063 32.2045927 221.60900593 C31.83544922 224.22705078 31.83544922 224.22705078 30.50906849 226.06701183 C27.7703992 227.96527095 25.14457391 227.61671274 21.86669922 227.62548828 C21.18998169 227.62835846 20.51326416 227.63122864 19.81604004 227.63418579 C18.38711713 227.63622476 16.9581662 227.63070647 15.52929688 227.61816406 C13.34295197 227.60210589 11.15845543 227.61801612 8.97216797 227.63720703 C7.58284098 227.63522457 6.19351513 227.63138082 4.80419922 227.62548828 C3.54027344 227.62210449 2.27634766 227.6187207 0.97412109 227.61523438 C-2.16455078 227.22705078 -2.16455078 227.22705078 -3.83729714 225.94220263 C-6.17366261 222.92301969 -5.57044751 219.11863047 -5.53877258 215.45176697 C-5.54274699 214.5440662 -5.5467214 213.63636543 -5.55081624 212.70115858 C-5.56047245 209.64705058 -5.54860104 206.59340196 -5.53686523 203.53930664 C-5.53929208 201.3549431 -5.54301036 199.17058067 -5.54792786 196.98622131 C-5.55735453 191.0442464 -5.54789675 185.1024357 -5.53459573 179.16047359 C-5.52330451 172.95273094 -5.52738689 166.74499666 -5.52934265 160.5372467 C-5.5302263 150.11212591 -5.51920039 139.68706596 -5.50073242 129.26196289 C-5.48172319 118.5285445 -5.47464594 107.7952016 -5.48022461 97.06176758 C-5.48692286 84.13596075 -5.48364442 71.21019792 -5.47112083 58.28439522 C-5.46646571 53.34302717 -5.46560493 48.40167963 -5.46770668 43.46030998 C-5.46958453 37.64666893 -5.46152457 31.83312529 -5.44564629 26.01950645 C-5.44138869 23.88048455 -5.44056272 21.74145278 -5.44333649 19.60242844 C-5.44653769 16.69329421 -5.43752885 13.78445484 -5.42524719 10.87535095 C-5.42902652 10.01943247 -5.43280584 9.16351399 -5.43669969 8.28165859 C-5.37731436 0.38581256 -5.37731436 0.38581256 0 0 Z " fill="#FED6D5" transform="translate(147.16455078125,107.77294921875)"/>
<path d="M0 0 C0.66 0.33 1.32 0.66 2 1 C2.04666014 30.04103995 2.08195941 59.0820743 2.10362434 88.12314415 C2.10566413 90.80410134 2.10774676 93.48505849 2.10986328 96.16601562 C2.1103879 96.8323981 2.11091252 97.49878057 2.11145304 98.18535645 C2.12016422 108.98634904 2.1359381 119.78732041 2.15430559 130.58830039 C2.17298484 141.66468938 2.18396275 152.74106969 2.18817699 163.81747401 C2.19079096 170.04162022 2.19696114 176.26571827 2.21146011 182.48984909 C2.2249828 188.34200501 2.22923346 194.19409268 2.22621536 200.04626274 C2.22676792 202.19980299 2.23077685 204.35334539 2.23841095 206.50687218 C2.24828912 209.43584961 2.24599513 212.36456573 2.24050903 215.29354858 C2.24633472 216.15540437 2.2521604 217.01726016 2.25816262 217.90523279 C2.22824242 223.77175758 2.22824242 223.77175758 0 226 C-4.40001337 226.39948471 -8.81458162 226.32901561 -13.23071289 226.31567383 C-15.42579921 226.31251683 -17.61953385 226.33595761 -19.81445312 226.36132812 C-21.20833163 226.36360143 -22.60221377 226.36430447 -23.99609375 226.36328125 C-25.26638428 226.36626221 -26.5366748 226.36924316 -27.84545898 226.37231445 C-31 226 -31 226 -32.67461109 224.83858013 C-34.54542542 222.2433856 -34.36913434 220.39409544 -34.36076355 217.21040344 C-34.36488754 216.00305542 -34.36901154 214.7957074 -34.3732605 213.55177307 C-34.36264313 212.21200339 -34.35173871 210.87223596 -34.34057617 209.5324707 C-34.33973005 208.1231793 -34.34020475 206.71388658 -34.34190369 205.30459595 C-34.34276566 201.4762678 -34.32510739 197.64822071 -34.30418181 193.81995797 C-34.28544861 189.82010584 -34.28366723 185.82024751 -34.28010559 181.82035828 C-34.27077523 174.24492053 -34.2461481 166.66961241 -34.21605712 159.09423178 C-34.18254389 150.47040262 -34.16603486 141.84656732 -34.15097082 133.22268927 C-34.11959937 115.48171931 -34.06681967 97.74087007 -34 80 C-34.66 79.67 -35.32 79.34 -36 79 C-34.68 79.33 -33.36 79.66 -32 80 C-31.67 127.19 -31.34 174.38 -31 223 C-21.1 223 -11.2 223 -1 223 C0.3051722 219.0844834 0.13428363 215.3678903 0.12025452 211.28718567 C0.12110894 210.38624088 0.12196337 209.48529608 0.12284368 208.55704993 C0.12449605 205.52605042 0.11898104 202.49510577 0.11352539 199.46411133 C0.11324344 197.29620871 0.11340141 195.128306 0.1139679 192.96040344 C0.11425557 187.0640666 0.10836373 181.16774998 0.10139394 175.27141786 C0.09515536 169.11345665 0.0945562 162.95549501 0.09336853 156.79753113 C0.09025671 145.13160692 0.08204532 133.46569205 0.07201904 121.79977196 C0.06085329 108.52063315 0.05534629 95.24149495 0.05032361 81.9623524 C0.03986259 54.64156308 0.02226602 27.32078206 0 0 Z " fill="#FED6D4" transform="translate(345,109)"/>
<path d="M0 0 C1.69316103 3.19889336 2.2844448 5.42815164 2.40966797 9.06542969 C2.44778595 10.10177551 2.48590393 11.13812134 2.525177 12.20587158 C2.55554047 13.34965271 2.58590393 14.49343384 2.6171875 15.671875 C2.65472137 16.8950946 2.69225525 18.11831421 2.73092651 19.37860107 C3.19440953 36.39604097 3.1543915 53.42136041 3.12897491 70.44370651 C3.12494733 73.2871882 3.12246619 76.13066793 3.12030029 78.97415161 C3.02956144 182.66527136 3.02956144 182.66527136 -0.52734375 218.5625 C-1.20438946 225.58800854 -1.3557617 232.6356144 -1.5625 239.6875 C-1.60582087 241.08269161 -1.64943878 242.47787402 -1.69335938 243.87304688 C-1.79848102 247.2486196 -1.90062877 250.62425393 -2 254 C-2.33 254 -2.66 254 -3 254 C-3.02312792 246.19424805 -3.04091738 238.38850405 -3.05181217 230.58272648 C-3.05704002 226.9585404 -3.06413587 223.3343777 -3.07543945 219.71020508 C-3.08627184 216.21540025 -3.09227758 212.72061796 -3.09487724 209.22579765 C-3.09763551 207.23760611 -3.10544688 205.24942369 -3.11329651 203.26124573 C-3.11337204 202.06007614 -3.11344757 200.85890656 -3.11352539 199.62133789 C-3.115746 198.55766495 -3.11796661 197.493992 -3.12025452 196.39808655 C-3 194 -3 194 -2 193 C-1.84623391 191.33145192 -1.76138341 189.65653031 -1.70288086 187.98193359 C-1.66292496 186.88014771 -1.62296906 185.77836182 -1.58180237 184.64318848 C-1.54320602 183.40742065 -1.50460968 182.17165283 -1.46484375 180.8984375 C-1.42177597 179.57936401 -1.37870819 178.26029053 -1.33433533 176.90124512 C-1.19096747 172.39280121 -1.06383107 167.88394794 -0.9375 163.375 C-0.91513527 162.59933937 -0.89277054 161.82367874 -0.86972809 161.02451324 C0.67299478 107.37357525 0.18151456 53.66726703 0 0 Z " fill="#BB0E0F" transform="translate(400,92)"/>
<path d="M0 0 C2.0668332 0.00119685 4.13366696 0.0016439 6.20050049 0.00138855 C10.49649547 0.00293823 14.79240533 0.0111114 19.08837891 0.0246582 C24.55350891 0.04168861 30.01854635 0.04547026 35.4836998 0.04471302 C39.73914447 0.04498676 43.99456954 0.05049979 48.25000763 0.05771446 C50.2639374 0.06086149 52.27786936 0.06285908 54.29180145 0.06360817 C64.51086939 0.07157937 74.65890632 0.19935454 84.84918213 1.00541687 C91.34138765 1.48580829 97.7377859 1.32164333 104.22758484 0.87324524 C117.30132045 0.00891861 130.38998038 0.04303156 143.48657227 0.04516602 C146.90147851 0.04526804 150.31617878 0.03153183 153.73103619 0.01439381 C157.05897408 0.00044759 160.38687719 0.00118209 163.71484375 0 C164.91525803 -0.00718552 166.1156723 -0.01437103 167.35246277 -0.02177429 C177.38352594 0.00478419 188.60997655 0.05239917 197.890625 4.23046875 C193.89183481 5.63318573 189.91122511 5.15211276 185.765625 4.85546875 C185.03730469 4.81164063 184.30898438 4.7678125 183.55859375 4.72265625 C178.15598348 4.36314799 178.15598348 4.36314799 175.890625 3.23046875 C173.05625239 3.13452455 170.24653031 3.10036741 167.41195679 3.11021423 C166.52411708 3.10935981 165.63627736 3.10850538 164.72153342 3.10762507 C161.72888625 3.10597017 158.7362944 3.11149181 155.74365234 3.11694336 C153.6054535 3.11722525 151.46725457 3.11706745 149.32905579 3.11650085 C143.50910348 3.11621297 137.68917161 3.12210821 131.86922407 3.12907481 C125.79266939 3.13530989 119.71611428 3.13591227 113.63955688 3.13710022 C102.12588798 3.14021308 90.61222853 3.14842586 79.09856379 3.15844971 C65.99356849 3.16961225 52.88857274 3.17512165 39.78357387 3.18014514 C12.81925233 3.19060851 -14.14506081 3.20820708 -41.109375 3.23046875 C-41.109375 2.90046875 -41.109375 2.57046875 -41.109375 2.23046875 C-27.35720097 0.4828489 -13.85371383 -0.05399062 0 0 Z " fill="#A20C0D" transform="translate(186.109375,58.76953125)"/>
<path d="M0 0 C-6.75770288 4.50513525 -13.02754575 5.72569711 -20.98046875 6.64453125 C-22.03469528 6.77036087 -23.08892181 6.89619049 -24.1750946 7.02583313 C-35.21492738 8.26205812 -46.21347695 8.56245706 -57.3125 8.6875 C-59.42180655 8.72120583 -61.5311002 8.755727 -63.64038086 8.79101562 C-79.92403256 9.0438121 -96.21024937 9.07856717 -112.49536133 8.96362305 C-113.77506805 8.95711983 -113.77506805 8.95711983 -115.08062744 8.95048523 C-116.65003403 8.94218257 -118.21942777 8.92981369 -119.78875732 8.91218567 C-123.90328456 8.89320396 -127.81554044 9.20708379 -131.90150452 9.77069092 C-135.90719966 10.2084056 -139.92400195 10.14206762 -143.94921875 10.1328125 C-144.88369339 10.13376923 -145.81816803 10.13472595 -146.78096008 10.13571167 C-148.75005155 10.13638893 -150.71914531 10.13456648 -152.68823242 10.13037109 C-155.66134823 10.12504683 -158.63431089 10.13031596 -161.60742188 10.13671875 C-171.45412187 10.13981335 -181.19674104 10.02042221 -191 9 C-191.33 10.32 -191.66 11.64 -192 13 C-192.66 13 -193.32 13 -194 13 C-194.33 10.69 -194.66 8.38 -195 6 C-117.285 6.495 -117.285 6.495 -38 7 C-38 6.34 -38 5.68 -38 5 C-26.12 4.505 -26.12 4.505 -14 4 C-14 3.34 -14 2.68 -14 2 C-4.58997722 -0.29612756 -4.58997722 -0.29612756 0 0 Z " fill="#BB0C0D" transform="translate(374,382)"/>
<path d="M0 0 C0.66 0 1.32 0 2 0 C2.00331015 0.73329655 2.00662029 1.46659309 2.01003075 2.22211075 C2.09121863 20.05727772 2.18329722 37.89235794 2.28752708 55.72740555 C2.3376685 64.35226922 2.38411124 72.9771233 2.421875 81.60205078 C2.45479571 89.11873021 2.49462736 96.63533564 2.54279006 104.15193343 C2.56805428 108.13264002 2.58983578 112.11329752 2.60334396 116.09406281 C2.61616504 119.84018316 2.63821987 123.58613518 2.66738319 127.33216286 C2.67645862 128.70758813 2.68214913 130.08304052 2.68421364 131.45849419 C2.68753624 133.3357507 2.70418991 135.21296953 2.7215271 137.09014893 C2.72705786 138.14099293 2.73258862 139.19183693 2.73828697 140.27452469 C2.86716553 143.33378448 2.86716553 143.33378448 5 147 C14.9 147 24.8 147 35 147 C35 147.33 35 147.66 35 148 C24.77 148 14.54 148 4 148 C3.67 147.01 3.34 146.02 3 145 C2.34 145 1.68 145 1 145 C-0.03841296 141.88476113 -0.12326532 139.74287384 -0.12025452 136.47615051 C-0.12162918 135.32770157 -0.12300385 134.17925262 -0.12442017 132.9960022 C-0.12082489 131.73508759 -0.11722961 130.47417297 -0.11352539 129.17504883 C-0.11324334 127.8347219 -0.11340161 126.49439483 -0.1139679 125.15406799 C-0.11425516 121.51385237 -0.10836983 117.8736696 -0.10139394 114.23346162 C-0.09514866 110.42978726 -0.09455567 106.62611217 -0.09336853 102.82243347 C-0.09025869 95.61891836 -0.08204996 88.41541839 -0.07201904 81.21190995 C-0.06084715 73.01127298 -0.05534474 64.8106353 -0.05032361 56.60999262 C-0.03986707 39.73998631 -0.02227432 22.86999476 0 6 C-0.66 6 -1.32 6 -2 6 C-2.12375 6.556875 -2.2475 7.11375 -2.375 7.6875 C-3.05976855 10.22114364 -3.99133763 12.57921032 -5 15 C-5.66 15 -6.32 15 -7 15 C-5.45454854 9.52067211 -2.84456788 4.88570819 0 0 Z " fill="#E40A0A" transform="translate(309,189)"/>
<path d="M0 0 C0.66 0.33 1.32 0.66 2 1 C0.75 3.9375 0.75 3.9375 -1 7 C-3.125 7.6875 -3.125 7.6875 -5 8 C-5.33 8.99 -5.66 9.98 -6 11 C-8.5625 12.1875 -8.5625 12.1875 -11 13 C-11 13.66 -11 14.32 -11 15 C-11.99 15.495 -11.99 15.495 -13 16 C-13.1546875 17.175625 -13.1546875 17.175625 -13.3125 18.375 C-14 21 -14 21 -16.4375 22.8125 C-19 24 -19 24 -21 24 C-20.99476318 25.07515869 -20.98952637 26.15031738 -20.98413086 27.25805664 C-20.84238738 59.51645389 -21.31416215 91.74935732 -22 124 C-22.33 124 -22.66 124 -23 124 C-23.36019454 106.87078094 -23.67483826 89.74108329 -23.94281006 72.61016846 C-23.99671526 69.20735212 -24.05413169 65.80460939 -24.11181641 62.40185547 C-24.19172564 57.51690681 -24.24900692 52.63221414 -24.28710938 47.74676514 C-24.30391407 45.97019425 -24.32773587 44.19367462 -24.35888672 42.41729736 C-24.40054572 39.95631515 -24.41645922 37.49644452 -24.42578125 35.03515625 C-24.44324905 34.33228989 -24.46071686 33.62942352 -24.47871399 32.90525818 C-24.44963149 26.20486425 -21.98589889 21.18958083 -17.5625 16.3125 C-16.716875 15.549375 -15.87125 14.78625 -15 14 C-14.113125 13.071875 -13.22625 12.14375 -12.3125 11.1875 C-10 9 -10 9 -8 9 C-8 8.34 -8 7.68 -8 7 C-7.34 7 -6.68 7 -6 7 C-6 6.34 -6 5.68 -6 5 C-4.04072937 3.2856382 -2.04119788 1.61594832 0 0 Z " fill="#A70A0B" transform="translate(106,71)"/>
<path d="M0 0 C0.66 0.33 1.32 0.66 2 1 C2.04666014 30.04103995 2.08195941 59.0820743 2.10362434 88.12314415 C2.10566413 90.80410134 2.10774676 93.48505849 2.10986328 96.16601562 C2.1103879 96.8323981 2.11091252 97.49878057 2.11145304 98.18535645 C2.12016422 108.98634904 2.1359381 119.78732041 2.15430559 130.58830039 C2.17298484 141.66468938 2.18396275 152.74106969 2.18817699 163.81747401 C2.19079096 170.04162022 2.19696114 176.26571827 2.21146011 182.48984909 C2.2249828 188.34200501 2.22923346 194.19409268 2.22621536 200.04626274 C2.22676792 202.19980299 2.23077685 204.35334539 2.23841095 206.50687218 C2.24828912 209.43584961 2.24599513 212.36456573 2.24050903 215.29354858 C2.24633472 216.15540437 2.2521604 217.01726016 2.25816262 217.90523279 C2.22824242 223.77175758 2.22824242 223.77175758 0 226 C-3.07275391 226.22705078 -3.07275391 226.22705078 -6.9765625 226.1953125 C-7.66181 226.1924826 -8.3470575 226.18965271 -9.05307007 226.18673706 C-11.24389027 226.17553281 -13.43430316 226.15042859 -15.625 226.125 C-17.1093691 226.11497048 -18.5937446 226.10584458 -20.078125 226.09765625 C-23.71888261 226.07559294 -27.35940156 226.04106176 -31 226 C-31 225.67 -31 225.34 -31 225 C-30.30438965 224.97494385 -29.6087793 224.9498877 -28.89208984 224.92407227 C-25.71956545 224.80754026 -22.54729645 224.68507432 -19.375 224.5625 C-18.28058594 224.52318359 -17.18617188 224.48386719 -16.05859375 224.44335938 C-14.46337891 224.38051758 -14.46337891 224.38051758 -12.8359375 224.31640625 C-11.86188965 224.27974854 -10.8878418 224.24309082 -9.88427734 224.20532227 C-6.8745148 223.99106712 -3.96704084 223.54068643 -1 223 C0.3051722 219.0844834 0.13428363 215.3678903 0.12025452 211.28718567 C0.12110894 210.38624088 0.12196337 209.48529608 0.12284368 208.55704993 C0.12449605 205.52605042 0.11898104 202.49510577 0.11352539 199.46411133 C0.11324344 197.29620871 0.11340141 195.128306 0.1139679 192.96040344 C0.11425557 187.0640666 0.10836373 181.16774998 0.10139394 175.27141786 C0.09515536 169.11345665 0.0945562 162.95549501 0.09336853 156.79753113 C0.09025671 145.13160692 0.08204532 133.46569205 0.07201904 121.79977196 C0.06085329 108.52063315 0.05534629 95.24149495 0.05032361 81.9623524 C0.03986259 54.64156308 0.02226602 27.32078206 0 0 Z " fill="#FFEDEF" transform="translate(345,109)"/>
<path d="M0 0 C0.66 0 1.32 0 2 0 C2 46.53 2 93.06 2 141 C1.67 141 1.34 141 1 141 C0.67 96.45 0.34 51.9 0 6 C-0.66 6 -1.32 6 -2 6 C-2.12375 6.556875 -2.2475 7.11375 -2.375 7.6875 C-3.05976855 10.22114364 -3.99133763 12.57921032 -5 15 C-5.66 15 -6.32 15 -7 15 C-5.45454854 9.52067211 -2.84456788 4.88570819 0 0 Z " fill="#C31617" transform="translate(309,189)"/>
<path d="M0 0 C2.91375388 1.45687694 3.35777779 3.50753903 4.6875 6.4375 C5.14511719 7.42621094 5.60273438 8.41492188 6.07421875 9.43359375 C6.37972656 10.28050781 6.68523437 11.12742188 7 12 C6.67 12.66 6.34 13.32 6 14 C5.34 13.67 4.68 13.34 4 13 C4 12.01 4 11.02 4 10 C3.34 10 2.68 10 2 10 C1.67 54.55 1.34 99.1 1 145 C-0.98 145.99 -0.98 145.99 -3 147 C-2.34 146.01 -1.68 145.02 -1 144 C-0.68736807 141.28819108 -0.68736807 141.28819108 -0.7215271 138.17243958 C-0.71036362 136.9566774 -0.69920013 135.74091522 -0.68769836 134.48831177 C-0.68533334 133.13909943 -0.6831577 131.78988675 -0.68115234 130.44067383 C-0.67185534 129.02152433 -0.66168701 127.60238031 -0.65071106 126.1832428 C-0.62337115 122.32818313 -0.60824989 118.47316009 -0.59528303 114.61802888 C-0.57966991 110.59009228 -0.55287392 106.56223066 -0.5272522 102.53434753 C-0.48043214 94.90587624 -0.44370368 87.2773909 -0.41057932 79.64884919 C-0.3723807 70.96449713 -0.32296465 62.28022032 -0.27259517 53.59593165 C-0.16922734 35.73067614 -0.07998274 17.86537473 0 0 Z " fill="#CD1819" transform="translate(179,188)"/>
<path d="M0 0 C-6.70610151 4.47073434 -12.92909893 5.71960911 -20.8203125 6.63671875 C-22.38895554 6.82484383 -22.38895554 6.82484383 -23.98928833 7.01676941 C-34.85489604 8.23230798 -45.7098697 8.60451503 -56.63574219 8.76342773 C-59.95043913 8.81364284 -63.26396704 8.88916664 -66.578125 8.96679688 C-68.6952855 9.00666892 -70.81247301 9.0451377 -72.9296875 9.08203125 C-73.91589081 9.10481644 -74.90209412 9.12760162 -75.91818237 9.15107727 C-77.27328415 9.16681038 -77.27328415 9.16681038 -78.65576172 9.18286133 C-79.44941132 9.19601883 -80.24306091 9.20917633 -81.0607605 9.22273254 C-83 9 -83 9 -85 7 C-69.49 7 -53.98 7 -38 7 C-38 6.34 -38 5.68 -38 5 C-30.08 4.67 -22.16 4.34 -14 4 C-14 3.34 -14 2.68 -14 2 C-4.58997722 -0.29612756 -4.58997722 -0.29612756 0 0 Z " fill="#B90F13" transform="translate(374,382)"/>
<path d="M0 0 C0.33 0 0.66 0 1 0 C1.12698892 8.93155415 0.94444815 17.82603878 0.5625 26.75 C0.52326416 27.69496338 0.48402832 28.63992676 0.44360352 29.61352539 C0.23742965 34.16557524 -0.04811432 38.68818806 -0.5 43.22265625 C-1.18196384 50.3632188 -1.35238942 57.52058531 -1.5625 64.6875 C-1.60582087 66.08269161 -1.64943878 67.47787402 -1.69335938 68.87304688 C-1.79848102 72.2486196 -1.90062877 75.62425393 -2 79 C-2.33 79 -2.66 79 -3 79 C-3.04639619 71.26335608 -3.0819062 63.52672664 -3.10362434 55.78997517 C-3.11404941 52.19725432 -3.12818516 48.60462885 -3.15087891 45.01196289 C-3.17265303 41.54306797 -3.18457823 38.07426463 -3.18975449 34.60530663 C-3.19523334 32.64165092 -3.21083903 30.67803192 -3.22659302 28.71443176 C-3.22674408 27.5135643 -3.22689514 26.31269684 -3.22705078 25.07543945 C-3.231492 24.02064896 -3.23593323 22.96585846 -3.24050903 21.87910461 C-2.98905041 18.86892375 -2.18998312 16.75498807 -1 14 C-0.71664284 11.57007865 -0.51196541 9.1300498 -0.375 6.6875 C-0.30023438 5.43324219 -0.22546875 4.17898438 -0.1484375 2.88671875 C-0.09945313 1.93410156 -0.05046875 0.98148437 0 0 Z " fill="#A20A0C" transform="translate(400,267)"/>
<path d="M0 0 C0 0.66 0 1.32 0 2 C0.99 1.67 1.98 1.34 3 1 C6.625 0.875 6.625 0.875 10 1 C11 2 11 2 11.0625 4.5625 C11.041875 5.366875 11.02125 6.17125 11 7 C11.99 6.67 12.98 6.34 14 6 C13.67 7.98 13.34 9.96 13 12 C12.34 12 11.68 12 11 12 C9.68 9.03 8.36 6.06 7 3 C6.01 3 5.02 3 4 3 C3.01 6.3 2.02 9.6 1 13 C0.01 13 -0.98 13 -2 13 C-3.28317892 9.15046324 -3.06643637 6.05261865 -3 2 C-4.32 2.33 -5.64 2.66 -7 3 C-7 2.34 -7 1.68 -7 1 C-4.50935112 0.31292445 -2.62113708 0 0 0 Z " fill="#C70B0C" transform="translate(169,388)"/>
<path d="M0 0 C0.33 0 0.66 0 1 0 C1.04935824 5.23273331 1.08569949 10.46533176 1.10986328 15.69824219 C1.11993431 17.47919067 1.13359185 19.26012257 1.15087891 21.04101562 C1.17507913 23.59769783 1.18647184 26.15416185 1.1953125 28.7109375 C1.20563507 29.50994476 1.21595764 30.30895203 1.22659302 31.13217163 C1.22699226 33.0895722 1.12241069 35.04643077 1 37 C-1 39 -1 39 -4.07275391 39.22705078 C-5.36101074 39.21657715 -6.64926758 39.20610352 -7.9765625 39.1953125 C-8.66181 39.1924826 -9.3470575 39.18965271 -10.05307007 39.18673706 C-12.24389027 39.17553281 -14.43430316 39.15042859 -16.625 39.125 C-18.1093691 39.11497048 -19.5937446 39.10584458 -21.078125 39.09765625 C-24.71888261 39.07559294 -28.35940156 39.04106176 -32 39 C-32 38.67 -32 38.34 -32 38 C-31.30438965 37.97494385 -30.6087793 37.9498877 -29.89208984 37.92407227 C-26.71956545 37.80754026 -23.54729645 37.68507432 -20.375 37.5625 C-18.73337891 37.50352539 -18.73337891 37.50352539 -17.05859375 37.44335938 C-15.99511719 37.40146484 -14.93164062 37.35957031 -13.8359375 37.31640625 C-12.86188965 37.27974854 -11.8878418 37.24309082 -10.88427734 37.20532227 C-7.8745148 36.99106712 -4.96704084 36.54068643 -2 36 C-0.81998451 32.45995354 -0.77087654 29.1772744 -0.68359375 25.48828125 C-0.66281265 24.76005661 -0.64203156 24.03183197 -0.62062073 23.28153992 C-0.55531254 20.95862125 -0.49632763 18.63559094 -0.4375 16.3125 C-0.39429695 14.73631665 -0.35068208 13.16014452 -0.30664062 11.58398438 C-0.1996504 7.72277025 -0.09833039 3.86144397 0 0 Z " fill="#FFD9D8" transform="translate(346,296)"/>
<path d="M0 0 C1.57688338 4.73065014 -0.84686158 8.19303381 -2.75 12.625 C-3.29140625 13.95144531 -3.29140625 13.95144531 -3.84375 15.3046875 C-4.19953125 16.14515625 -4.5553125 16.985625 -4.921875 17.8515625 C-5.24768555 18.62322754 -5.57349609 19.39489258 -5.90917969 20.18994141 C-7 22 -7 22 -10 23 C-11.17094005 20.2100561 -12.33690927 17.41821403 -13.5 14.625 C-14.00080078 13.43390625 -14.00080078 13.43390625 -14.51171875 12.21875 C-14.82753906 11.45820313 -15.14335937 10.69765625 -15.46875 9.9140625 C-15.90864258 8.8614624 -15.90864258 8.8614624 -16.35742188 7.78759766 C-17 6 -17 6 -17 4 C-16.34 4 -15.68 4 -15 4 C-14.74605469 4.67546875 -14.49210938 5.3509375 -14.23046875 6.046875 C-13.88628906 6.93890625 -13.54210937 7.8309375 -13.1875 8.75 C-12.85105469 9.63171875 -12.51460937 10.5134375 -12.16796875 11.421875 C-11.03153178 13.93039808 -9.73457073 15.87279005 -8 18 C-7.67 16.68 -7.34 15.36 -7 14 C-6.34 14 -5.68 14 -5 14 C-5 12.35 -5 10.7 -5 9 C-4.34 9 -3.68 9 -3 9 C-3.33 7.35 -3.66 5.7 -4 4 C-3.01 3.67 -2.02 3.34 -1 3 C-0.67 2.01 -0.34 1.02 0 0 Z " fill="#DC2123" transform="translate(254,224)"/>
<path d="M0 0 C-2.01177181 2.01177181 -5.92477333 1.43663935 -8.65234375 1.62109375 C-11.18512773 1.79485724 -11.18512773 1.79485724 -13 4 C-16.625 4.125 -16.625 4.125 -20 4 C-20 4.66 -20 5.32 -20 6 C-21.5159375 6.185625 -21.5159375 6.185625 -23.0625 6.375 C-27.01401901 6.90217826 -27.01401901 6.90217826 -30.75 8.1875 C-32.35875 8.5896875 -32.35875 8.5896875 -34 9 C-34.99 8.34 -35.98 7.68 -37 7 C-28.85698162 3.96138105 -20.88873575 1.56605289 -12.3125 0.125 C-11.54695801 -0.00688721 -10.78141602 -0.13877441 -9.99267578 -0.2746582 C-6.3412599 -0.84526819 -3.53426231 -1.05063401 0 0 Z " fill="#9D0C0F" transform="translate(145,63)"/>
<path d="M0 0 C0.99 0.495 0.99 0.495 2 1 C2 1.66 2 2.32 2 3 C18.335 3.495 18.335 3.495 35 4 C35 4.66 35 5.32 35 6 C30.49770526 6.09889302 25.99604273 6.17147709 21.49291992 6.21972656 C19.96123238 6.2398398 18.42962161 6.2671345 16.89819336 6.30175781 C14.69625927 6.35029315 12.49534018 6.37296996 10.29296875 6.390625 C9.60849167 6.41127014 8.92401459 6.43191528 8.21879578 6.45318604 C4.97977987 6.45471403 3.41702526 6.40500019 1.04418945 4.10058594 C0 2 0 2 0 0 Z " fill="#DF1E1E" transform="translate(141,331)"/>
<path d="M0 0 C5.75 1.875 5.75 1.875 8 3 C8 3.66 8 4.32 8 5 C8.66 5 9.32 5 10 5 C14.93296447 11.21982477 16.51739054 20.23914191 16 28 C15.67 28 15.34 28 15 28 C14.81824219 27.23816406 14.63648438 26.47632812 14.44921875 25.69140625 C12.90326437 19.34110136 11.15906664 13.16876182 9 7 C8.34 7 7.68 7 7 7 C7 6.34 7 5.68 7 5 C5.02 5 3.04 5 1 5 C0.67 3.35 0.34 1.7 0 0 Z " fill="#A00A0D" transform="translate(384,64)"/>
<path d="M0 0 C0.99 0 1.98 0 3 0 C3.66 1.32 4.32 2.64 5 4 C8.465 3.505 8.465 3.505 12 3 C11.67 4.32 11.34 5.64 11 7 C11 6.34 11 5.68 11 5 C10.01 5.33 9.02 5.66 8 6 C7.67 9.96 7.34 13.92 7 18 C6.01 18 5.02 18 4 18 C3.96261719 17.3709375 3.92523438 16.741875 3.88671875 16.09375 C3.43322879 10.18948851 2.32023086 5.44749854 0 0 Z " fill="#6A0C0E" transform="translate(154,387)"/>
<path d="M0 0 C0.90861872 2.47346206 1.14526522 3.62438566 0.1796875 6.12109375 C-0.25085938 6.88550781 -0.68140625 7.64992187 -1.125 8.4375 C-3.79125436 13.44503589 -5.80953893 18.55142675 -7.796875 23.859375 C-9.37534911 27.97980742 -11.14814617 31.99627132 -13 36 C-14.4639251 31.5496677 -12.94195884 29.18268058 -11 25 C-10.62691369 23.67723944 -10.26953585 22.34767923 -10 21 C-9.34 21 -8.68 21 -8 21 C-8 19.68 -8 18.36 -8 17 C-7.34 17 -6.68 17 -6 17 C-6 15.02 -6 13.04 -6 11 C-5.34 11 -4.68 11 -4 11 C-3.855625 10.4225 -3.71125 9.845 -3.5625 9.25 C-3.04166667 7.16666667 -2.52083333 5.08333333 -2 3 C-1.34 3 -0.68 3 0 3 C0 2.01 0 1.02 0 0 Z " fill="#DD1F21" transform="translate(283,155)"/>
<path d="M0 0 C1.46726798 3.81489674 0.43336419 6.29011622 -1 10 C-1.66 10 -2.32 10 -3 10 C-3 11.65 -3 13.3 -3 15 C-2.34 15 -1.68 15 -1 15 C-0.67 15.99 -0.34 16.98 0 18 C-2.31 18.33 -4.62 18.66 -7 19 C-7.33 20.32 -7.66 21.64 -8 23 C-9 21 -9 21 -8.50268555 19.27587891 C-8.2169165 18.59960449 -7.93114746 17.92333008 -7.63671875 17.2265625 C-7.32669922 16.4840625 -7.01667969 15.7415625 -6.69726562 14.9765625 C-6.36404297 14.20054687 -6.03082031 13.42453125 -5.6875 12.625 C-5.36587891 11.85671875 -5.04425781 11.0884375 -4.71289062 10.296875 C-3.24197336 6.80533422 -1.71977384 3.37726781 0 0 Z " fill="#E41D1F" transform="translate(288,234)"/>
<path d="M0 0 C13.53 0 27.06 0 41 0 C41 0.66 41 1.32 41 2 C39.86457764 1.98952637 38.72915527 1.97905273 37.55932617 1.96826172 C33.34939727 1.93207945 29.13948213 1.90910598 24.92944336 1.89013672 C23.10682871 1.88007509 21.28423021 1.8664244 19.46166992 1.84912109 C16.84289565 1.82487979 14.22433469 1.81351862 11.60546875 1.8046875 C10.78974899 1.79436493 9.97402924 1.78404236 9.1335907 1.77340698 C5.22869244 1.7726314 3.32475992 1.78349339 0 4 C0 2.68 0 1.36 0 0 Z " fill="#DA1718" transform="translate(141,107)"/>
<path d="M0 0 C3 1 3 1 4.09765625 2.9609375 C4.41605469 3.75757813 4.73445312 4.55421875 5.0625 5.375 C6.21523735 8.21749291 7.28043703 10.42065555 9 13 C9.125 15.6875 9.125 15.6875 9 18 C9.66 18 10.32 18 11 18 C11 19.65 11 21.3 11 23 C11.66 23 12.32 23 13 23 C13 24.65 13 26.3 13 28 C10.72992852 25.17238854 9.18360678 22.45704346 7.7734375 19.12109375 C7.185625 17.73954102 7.185625 17.73954102 6.5859375 16.33007812 C6.18632812 15.37552734 5.78671875 14.42097656 5.375 13.4375 C4.96765625 12.47908203 4.5603125 11.52066406 4.140625 10.53320312 C1.17761769 3.53285308 1.17761769 3.53285308 0 0 Z " fill="#FED9D5" transform="translate(198,228)"/>
<path d="M0 0 C0.33 1.32 0.66 2.64 1 4 C1.66 4 2.32 4 3 4 C3 4.66 3 5.32 3 6 C1.66666667 7.33333333 0.33333333 8.66666667 -1 10 C-2.12516085 11.83284443 -2.12516085 11.83284443 -3 14 C-3.25910156 14.59683594 -3.51820313 15.19367188 -3.78515625 15.80859375 C-4.53213327 17.53532668 -5.26694009 19.26731294 -6 21 C-6.66 21 -7.32 21 -8 21 C-5.72564796 13.81783567 -2.96415819 6.9241798 0 0 Z " fill="#FEDFDA" transform="translate(275,177)"/>
<path d="M0 0 C1 1 1 1 1.0625 3.5625 C1.041875 4.366875 1.02125 5.17125 1 6 C1.99 5.67 2.98 5.34 4 5 C3.67 6.98 3.34 8.96 3 11 C2.34 11 1.68 11 1 11 C-0.32 8.03 -1.64 5.06 -3 2 C-3.99 2 -4.98 2 -6 2 C-6.66 3.65 -7.32 5.3 -8 7 C-10 3.25 -10 3.25 -10 1 C-6.50615721 -0.16461426 -3.66344611 -0.13568319 0 0 Z " fill="#B2090E" transform="translate(179,389)"/>
<path d="M0 0 C-7.82353044 5.21568696 -14.70632777 5.62619071 -24 6 C-20.3558226 3.5705484 -18.28758728 3.83820425 -14 4 C-14 3.34 -14 2.68 -14 2 C-4.58997722 -0.29612756 -4.58997722 -0.29612756 0 0 Z " fill="#8B0B0C" transform="translate(374,382)"/>
<path d="M0 0 C3.14823068 3.68100818 4.82051175 7.83782734 6.6875 12.25 C7.00783203 12.99507813 7.32816406 13.74015625 7.65820312 14.5078125 C8.44359663 16.33648991 9.22245338 18.16797236 10 20 C9.34 20.33 8.68 20.66 8 21 C8 20.34 8 19.68 8 19 C7.34 19 6.68 19 6 19 C5.81824219 18.30132812 5.63648438 17.60265625 5.44921875 16.8828125 C5.19785156 15.97273438 4.94648438 15.06265625 4.6875 14.125 C4.44386719 13.22007812 4.20023438 12.31515625 3.94921875 11.3828125 C3.13330148 8.67886681 3.13330148 8.67886681 0 7 C-0.1875 3.375 -0.1875 3.375 0 0 Z " fill="#E42C2B" transform="translate(207,249)"/>
<path d="M0 0 C0.33 0 0.66 0 1 0 C0.85904936 1.6254308 0.71207913 3.25034051 0.5625 4.875 C0.48128906 5.77992188 0.40007812 6.68484375 0.31640625 7.6171875 C0 10 0 10 -1 12 C-1.23692005 15.04924878 -1.3823756 18.09724003 -1.5234375 21.15234375 C-2.03577707 24.21378263 -2.58353503 25.14565389 -5 27 C-3.25740319 7.99544419 -3.25740319 7.99544419 0 0 Z " fill="#A20D0E" transform="translate(396,346)"/>
<path d="M0 0 C0.66 0 1.32 0 2 0 C-0.08852505 8.11593505 -3.35329853 15.47056459 -7 23 C-7.33 23 -7.66 23 -8 23 C-8 21.02 -8 19.04 -8 17 C-7.34 17 -6.68 17 -6 17 C-6 15.68 -6 14.36 -6 13 C-5.34 13 -4.68 13 -4 13 C-3.34 10.03 -2.68 7.06 -2 4 C-1.34 4 -0.68 4 0 4 C0 2.68 0 1.36 0 0 Z " fill="#DD2220" transform="translate(293,130)"/>
<path d="M0 0 C4.62 0 9.24 0 14 0 C14 0.66 14 1.32 14 2 C6.97195301 2.85373239 0.07721931 3.12109311 -7 3 C-7 2.67 -7 2.34 -7 2 C-4.69 2 -2.38 2 0 2 C0 1.34 0 0.68 0 0 Z " fill="#A60D0E" transform="translate(336,387)"/>
<path d="M0 0 C0.33 0 0.66 0 1 0 C2.14127907 5.17965116 2.14127907 5.17965116 2 8 C-0.375 10.875 -0.375 10.875 -3 13 C-3.33 13.66 -3.66 14.32 -4 15 C-4.66 15 -5.32 15 -6 15 C-4.40109514 9.80355921 -2.25861997 4.93387858 0 0 Z " fill="#E41E1E" transform="translate(301,205)"/>
<path d="M0 0 C1.32 0 2.64 0 4 0 C4 0.66 4 1.32 4 2 C5.98 1.67 7.96 1.34 10 1 C9.67 4.63 9.34 8.26 9 12 C6 8 6 8 5.625 5.375 C5.315625 4.199375 5.315625 4.199375 5 3 C2.52363988 1.62533375 2.52363988 1.62533375 0 1 C0 0.67 0 0.34 0 0 Z " fill="#E9191B" transform="translate(182,109)"/>
<path d="M0 0 C0 0.66 0 1.32 0 2 C-1.010625 2.12375 -2.02125 2.2475 -3.0625 2.375 C-7.01401901 2.90217826 -7.01401901 2.90217826 -10.75 4.1875 C-11.8225 4.455625 -12.895 4.72375 -14 5 C-14.99 4.34 -15.98 3.68 -17 3 C-11.06108578 0.4084738 -6.45892714 -0.40368295 0 0 Z " fill="#BF0D0C" transform="translate(125,67)"/>
<path d="M0 0 C0.99 0.66 1.98 1.32 3 2 C2.34 2 1.68 2 1 2 C1.33 3.98 1.66 5.96 2 8 C1.38125 8.2475 0.7625 8.495 0.125 8.75 C-2.35068687 10.20628639 -2.95125002 11.37812506 -4 14 C-4.33 13.34 -4.66 12.68 -5 12 C-4.26821134 9.92803369 -3.44100997 7.8891448 -2.5625 5.875 C-2.08941406 4.77929688 -1.61632812 3.68359375 -1.12890625 2.5546875 C-0.75636719 1.71164062 -0.38382812 0.86859375 0 0 Z " fill="#E71415" transform="translate(266,283)"/>
<path d="M0 0 C0.99 0.33 1.98 0.66 3 1 C-2.39304453 5.33788364 -7.30108234 7.34211897 -14 9 C-14 8.34 -14 7.68 -14 7 C-13.21625 6.71125 -12.4325 6.4225 -11.625 6.125 C-8.90328368 5.15087746 -8.90328368 5.15087746 -7 3 C-4.67724823 2.59952556 -2.34260643 2.2602896 0 2 C0 1.34 0 0.68 0 0 Z " fill="#9E0D0D" transform="translate(388,373)"/>
<path d="M0 0 C0.66 0 1.32 0 2 0 C2.25394531 0.66386719 2.50789062 1.32773438 2.76953125 2.01171875 C4.55725066 6.59818989 6.38388256 10.8142121 9 15 C9 15.66 9 16.32 9 17 C8.01 17 7.02 17 6 17 C4.99580363 14.5433053 3.99649499 12.08481647 3 9.625 C2.71382812 8.92632812 2.42765625 8.22765625 2.1328125 7.5078125 C0 2.2265625 0 2.2265625 0 0 Z " fill="#DE1614" transform="translate(237,228)"/>
<path d="M0 0 C0.33 0 0.66 0 1 0 C1 2.64 1 5.28 1 8 C0.67 7.34 0.34 6.68 0 6 C-0.66 6 -1.32 6 -2 6 C-2.12375 6.556875 -2.2475 7.11375 -2.375 7.6875 C-3.05976855 10.22114364 -3.99133763 12.57921032 -5 15 C-5.66 15 -6.32 15 -7 15 C-5.45454854 9.52067211 -2.84456788 4.88570819 0 0 Z " fill="#DD282C" transform="translate(309,189)"/>
<path d="M0 0 C2 3 2 3 2 5 C4.33075929 4.04134491 4.33075929 4.04134491 6 1 C6.25 3.25 6.25 3.25 6 6 C4.125 8.3125 4.125 8.3125 2 10 C1.34 10 0.68 10 0 10 C-1.125 3.375 -1.125 3.375 0 0 Z " fill="#FEE5DF" transform="translate(242,242)"/>
<path d="M0 0 C1.67588141 2.51382212 2.94030311 4.82947288 4.1875 7.5625 C4.55230469 8.34753906 4.91710937 9.13257813 5.29296875 9.94140625 C5.52628906 10.62074219 5.75960937 11.30007812 6 12 C5.67 12.66 5.34 13.32 5 14 C0.17970402 10.26427061 0.17970402 10.26427061 -0.33203125 6.6640625 C-0.31436669 4.4241967 -0.21850902 2.22879201 0 0 Z " fill="#E51D1F" transform="translate(201,235)"/>
<path d="M0 0 C2.44814179 3.0296652 4.09452853 6.07549599 5.6875 9.625 C6.12449219 10.58664063 6.56148437 11.54828125 7.01171875 12.5390625 C8 15 8 15 8 17 C7.34 17 6.68 17 6 17 C0 5.26213592 0 5.26213592 0 0 Z " fill="#E0292B" transform="translate(193,218)"/>
<path d="M0 0 C2.91375388 1.45687694 3.35777779 3.50753903 4.6875 6.4375 C5.14511719 7.42621094 5.60273438 8.41492188 6.07421875 9.43359375 C6.37972656 10.28050781 6.68523437 11.12742188 7 12 C6.67 12.66 6.34 13.32 6 14 C5.34 13.67 4.68 13.34 4 13 C4 12.01 4 11.02 4 10 C3.34 10 2.68 10 2 10 C0 8 0 8 -0.1953125 6.0546875 C-0.13020833 4.03645833 -0.06510417 2.01822917 0 0 Z " fill="#D22826" transform="translate(179,188)"/>
<path d="M0 0 C0.33 0 0.66 0 1 0 C1.3529412 3.79411788 1.4065339 5.46232614 -0.9375 8.5625 C-1.618125 9.366875 -2.29875 10.17125 -3 11 C-3.78946609 13.68507329 -3.78946609 13.68507329 -4 16 C-4.99 16.33 -5.98 16.66 -7 17 C-5.53012914 10.85326729 -2.94033413 5.57765673 0 0 Z " fill="#FDD1CE" transform="translate(283,159)"/>
<path d="M0 0 C0.33 1.32 0.66 2.64 1 4 C0.34 4 -0.32 4 -1 4 C-1 5.65 -1 7.3 -1 9 C-1.66 9 -2.32 9 -3 9 C-3 10.98 -3 12.96 -3 15 C-4.32 15.33 -5.64 15.66 -7 16 C-6.21292098 13.89411299 -5.42017374 11.79034384 -4.625 9.6875 C-4.18414062 8.51574219 -3.74328125 7.34398437 -3.2890625 6.13671875 C-2 3 -2 3 0 0 Z " fill="#E02B29" transform="translate(278,257)"/>
<path d="M0 0 C1.1700097 3.91736581 0.69584017 6.97959015 0 11 C-0.99 11 -1.98 11 -3 11 C-3.33 12.32 -3.66 13.64 -4 15 C-5.32830615 11.01508155 -4.23204404 9.59951452 -2.5625 5.8125 C-2.08941406 4.72582031 -1.61632812 3.63914063 -1.12890625 2.51953125 C-0.75636719 1.68808594 -0.38382812 0.85664063 0 0 Z " fill="#E32426" transform="translate(294,220)"/>
<path d="M0 0 C-0.33 1.32 -0.66 2.64 -1 4 C-1 3.34 -1 2.68 -1 2 C-1.99 2.33 -2.98 2.66 -4 3 C-4.33 4.98 -4.66 6.96 -5 9 C-5.66 9 -6.32 9 -7 9 C-7.33 6.36 -7.66 3.72 -8 1 C-2.25 0 -2.25 0 0 0 Z " fill="#920E0E" transform="translate(166,390)"/>
<path d="M0 0 C1.86889895 2.80334843 3.27024908 5.51277094 4.6875 8.5625 C5.14511719 9.53316406 5.60273438 10.50382813 6.07421875 11.50390625 C6.37972656 12.32761719 6.68523437 13.15132812 7 14 C6.67 14.66 6.34 15.32 6 16 C0 5.8 0 5.8 0 0 Z " fill="#DE272A" transform="translate(186,202)"/>
<path d="M0 0 C1.56629708 3.01970788 2.87625164 6.08650414 4.125 9.25 C4.47820312 10.14203125 4.83140625 11.0340625 5.1953125 11.953125 C5.46085938 12.62859375 5.72640625 13.3040625 6 14 C4 14 4 14 2.4375 12.75 C0.83641359 10.80085132 0.47360922 9.44698097 0 7 C-0.33 6.34 -0.66 5.68 -1 5 C-0.72057545 3.32345271 -0.39171753 1.65391846 0 0 Z " fill="#FDD8D7" transform="translate(203,151)"/>
<path d="M0 0 C1.32 0.66 2.64 1.32 4 2 C3.01 2.495 3.01 2.495 2 3 C1.67 3.99 1.34 4.98 1 6 C-0.375 7.6875 -0.375 7.6875 -2 9 C-2.99 9 -3.98 9 -5 9 C-4.67 7.68 -4.34 6.36 -4 5 C-3.34 5.33 -2.68 5.66 -2 6 C-2 5.34 -2 4.68 -2 4 C-1.34 4 -0.68 4 0 4 C0 2.68 0 1.36 0 0 Z " fill="#AE0F11" transform="translate(152,385)"/>
<path d="M0 0 C0.66 0 1.32 0 2 0 C2 1.32 2 2.64 2 4 C2.66 4 3.32 4 4 4 C6.32590854 7.63423209 6.16265833 10.77088331 6 15 C4.55722368 12.15344131 3.18824896 9.28360325 1.875 6.375 C1.52179688 5.59898437 1.16859375 4.82296875 0.8046875 4.0234375 C0 2 0 2 0 0 Z " fill="#DD1D1E" transform="translate(199,140)"/>
<path d="M0 0 C-1.37326602 4.11979807 -4.08595092 7.04297546 -8 9 C-6.125 3.25 -6.125 3.25 -5 1 C-2 0 -2 0 0 0 Z " fill="#FEE6E1" transform="translate(309,109)"/>
<path d="M0 0 C2.9375 0.8125 2.9375 0.8125 6 2 C6.33 2.99 6.66 3.98 7 5 C5.02 5 3.04 5 1 5 C0.67 3.35 0.34 1.7 0 0 Z " fill="#B90A0E" transform="translate(384,64)"/>
<path d="M0 0 C1.22419163 3.93795909 0.48320272 6.16112237 -1 10 C-1.66 10 -2.32 10 -3 10 C-3.33 11.32 -3.66 12.64 -4 14 C-4.33 13.34 -4.66 12.68 -5 12 C-4.26821134 9.92803369 -3.44100997 7.8891448 -2.5625 5.875 C-2.08941406 4.77929688 -1.61632812 3.68359375 -1.12890625 2.5546875 C-0.75636719 1.71164063 -0.38382812 0.86859375 0 0 Z " fill="#FCC6C7" transform="translate(294,132)"/>
<path d="M0 0 C0.33 0 0.66 0 1 0 C1.3125 2.1875 1.3125 2.1875 1 5 C-1.5 7.8125 -1.5 7.8125 -4 10 C-3.52449439 8.51965236 -3.04448784 7.04074979 -2.5625 5.5625 C-2.29566406 4.73878906 -2.02882813 3.91507813 -1.75390625 3.06640625 C-1 1 -1 1 0 0 Z " fill="#FCCFCE" transform="translate(260,214)"/>
<path d="M0 0 C0.33 0 0.66 0 1 0 C0.67 3.3 0.34 6.6 0 10 C-0.66 10 -1.32 10 -2 10 C-2.33 8.02 -2.66 6.04 -3 4 C-2.34 4 -1.68 4 -1 4 C-0.67 2.68 -0.34 1.36 0 0 Z " fill="#6B0F11" transform="translate(145,390)"/>
<path d="M0 0 C0.95465783 2.16967689 1.14401212 3.56328793 0.3984375 5.82421875 C-0.35870385 7.5684743 -1.17609198 9.28627131 -2 11 C-2.66 11 -3.32 11 -4 11 C-3.52269162 9.5410574 -3.04308958 8.08286504 -2.5625 6.625 C-2.29566406 5.81289062 -2.02882812 5.00078125 -1.75390625 4.1640625 C-1 2 -1 2 0 0 Z " fill="#FED5D5" transform="translate(252,232)"/>
<path d="M0 0 C0.66 0 1.32 0 2 0 C1.5205537 4.21912747 0.83374881 6.79663178 -2 10 C-2 8.02 -2 6.04 -2 4 C-1.34 4 -0.68 4 0 4 C0 2.68 0 1.36 0 0 Z " fill="#E01918" transform="translate(287,143)"/>
<path d="M0 0 C0.66 0 1.32 0 2 0 C2 0.66 2 1.32 2 2 C2.66 2 3.32 2 4 2 C4.33 3.98 4.66 5.96 5 8 C4.01 8.495 4.01 8.495 3 9 C2.01 6.03 1.02 3.06 0 0 Z " fill="#E21719" transform="translate(195,131)"/>
<path d="M0 0 C0 2.31 0 4.62 0 7 C-0.66 7 -1.32 7 -2 7 C-2.66 5.35 -3.32 3.7 -4 2 C-1 0 -1 0 0 0 Z " fill="#EF0705" transform="translate(285,148)"/>
<path d="M0 0 C1.32 0 2.64 0 4 0 C3.67 1.98 3.34 3.96 3 6 C2.34 6 1.68 6 1 6 C0.67 4.02 0.34 2.04 0 0 Z " fill="#7A0E08" transform="translate(179,394)"/>
<path d="M0 0 C0.99 0.66 1.98 1.32 3 2 C2.34 2 1.68 2 1 2 C0.67 3.65 0.34 5.3 0 7 C-0.99 7 -1.98 7 -3 7 C-2.01 4.69 -1.02 2.38 0 0 Z " fill="#E52929" transform="translate(266,283)"/>
<path d="M0 0 C2.50298434 2.93828597 3.46930939 5.17902761 4 9 C2.68 8.34 1.36 7.68 0 7 C0 4.69 0 2.38 0 0 Z " fill="#E11E23" transform="translate(207,249)"/>
<path d="M0 0 C2.6855594 2.6855594 3.06049974 5.37621328 4 9 C2.68 8.34 1.36 7.68 0 7 C0 4.69 0 2.38 0 0 Z " fill="#F9C2C0" transform="translate(236,228)"/>
<path d="M0 0 C0.66 0 1.32 0 2 0 C0.84414715 3.91211733 -0.35534962 6.8745041 -3 10 C-2.49287967 6.28111761 -1.88391785 3.26545761 0 0 Z " fill="#FEE1DB" transform="translate(307,188)"/>
<path d="" fill="#000000" transform="translate(0,0)"/>
<path d="" fill="#000000" transform="translate(0,0)"/>
<path d="" fill="#000000" transform="translate(0,0)"/>
<path d="" fill="#000000" transform="translate(0,0)"/>
<path d="" fill="#000000" transform="translate(0,0)"/>
<path d="" fill="#000000" transform="translate(0,0)"/>
<path d="" fill="#000000" transform="translate(0,0)"/>
<path d="" fill="#000000" transform="translate(0,0)"/>
<path d="" fill="#000000" transform="translate(0,0)"/>
<path d="" fill="#000000" transform="translate(0,0)"/>
<path d="" fill="#000000" transform="translate(0,0)"/>
<path d="" fill="#000000" transform="translate(0,0)"/>
<path d="" fill="#000000" transform="translate(0,0)"/>
<path d="" fill="#000000" transform="translate(0,0)"/>
<path d="" fill="#000000" transform="translate(0,0)"/>
<path d="" fill="#000000" transform="translate(0,0)"/>
<path d="" fill="#000000" transform="translate(0,0)"/>
<path d="" fill="#000000" transform="translate(0,0)"/>
<path d="" fill="#000000" transform="translate(0,0)"/>
<path d="" fill="#000000" transform="translate(0,0)"/>
<path d="" fill="#000000" transform="translate(0,0)"/>
<path d="" fill="#000000" transform="translate(0,0)"/>
<path d="" fill="#000000" transform="translate(0,0)"/>
<path d="" fill="#000000" transform="translate(0,0)"/>
<path d="" fill="#000000" transform="translate(0,0)"/>
<path d="" fill="#000000" transform="translate(0,0)"/>
<path d="" fill="#000000" transform="translate(0,0)"/>
<path d="" fill="#000000" transform="translate(0,0)"/>
<path d="" fill="#000000" transform="translate(0,0)"/>
<path d="" fill="#000000" transform="translate(0,0)"/>
<path d="" fill="#000000" transform="translate(0,0)"/>
<path d="" fill="#000000" transform="translate(0,0)"/>
<path d="" fill="#000000" transform="translate(0,0)"/>
<path d="" fill="#000000" transform="translate(0,0)"/>
<path d="" fill="#000000" transform="translate(0,0)"/>
<path d="" fill="#000000" transform="translate(0,0)"/>
<path d="" fill="#000000" transform="translate(0,0)"/>
<path d="" fill="#000000" transform="translate(0,0)"/>
<path d="" fill="#000000" transform="translate(0,0)"/>
<path d="" fill="#000000" transform="translate(0,0)"/>
<path d="" fill="#000000" transform="translate(0,0)"/>
</svg>
